<mxfile host="app.diagrams.net" modified="2024-02-24T22:41:31.065Z" agent="Mozilla/5.0 (Windows NT 10.0; Win64; x64) AppleWebKit/537.36 (KHTML, like Gecko) Chrome/121.0.0.0 Safari/537.36" version="23.1.6" etag="S7RC6SdPt6WsFMExV06L" type="github">
  <diagram name="Page-1" id="VdS6RaHfgavRxwlO5tNB">
    <mxGraphModel>
      <root>
        <mxCell id="0" />
        <mxCell id="1" parent="0" />
      </root>
    </mxGraphModel>
  </diagram>
</mxfile>
